<?xml version="1.0" encoding="UTF-8"?> <svg xmlns="http://www.w3.org/2000/svg" xmlns:xlink="http://www.w3.org/1999/xlink" id="Capa_1" width="350" height="319.33" viewBox="0 0 350 319.33"><defs><linearGradient id="Degradado_sin_nombre_17" x1="2.12" y1="241.17" x2="347.72" y2="241.17" gradientUnits="userSpaceOnUse"><stop offset="0" stop-color="#ccd5de"></stop><stop offset="1" stop-color="#d8e4f3"></stop></linearGradient><linearGradient id="Degradado_sin_nombre_25" x1="2.12" y1="172.28" x2="347.69" y2="172.28" gradientUnits="userSpaceOnUse"><stop offset="0" stop-color="#e7ecf0"></stop><stop offset="1" stop-color="#fbfcfd"></stop></linearGradient></defs><path d="m2.12,170.52v49.48l157.49,91.31s7.89,4.78,15.29,4.78,14.63-3.87,14.63-3.87l155.37-93.85s3.16-3.55,2.79-4.6,0-47.53,0-47.53l-172.78,87.73L2.87,168.54l-.75,1.98Z" fill="url(#Degradado_sin_nombre_17)"></path><path d="m15.16,184.89l144.45,84.26s8.04,3.64,15.67,3.64,15.33-3.34,15.33-3.34l153.68-94.17s3.94-3.02,3.34-7.05-3.94-7.67-3.94-7.67l-158.97-86.94s-3.14-1.84-7.78-1.84-11,2.55-11,2.55L7.28,164.8s-5.16,2.95-5.16,5.72,1.21,5.92,2.43,6.77,10.62,7.59,10.62,7.59Z" fill="url(#Degradado_sin_nombre_25)"></path><path d="m2.12,190.25s.56,2.28,1.98,3.69,160.16,94.64,160.16,94.64c0,0,5.66,1.62,10.92,1.62s9.71-1.21,9.71-1.21l158.75-96.26s1.64-.79,2.83-2.22c1.1-1.33,1.1-3.84,1.1-3.84l-.03,8.07s-.06.42-1.07,1.64-159.9,97.68-159.9,97.68c0,0-6.53,1.62-11.28,1.62s-11.63-1.62-11.63-1.62L5.51,202.64s-3.39-1.87-3.39-3.09v-9.3Z" fill="#45b8ac"></path><path d="m249.49,179.02c10.2,5.89,10.2,15.44,0,21.33-10.2,5.89-26.74,5.89-36.94,0-10.2-5.89-10.2-15.44,0-21.33,10.2-5.89,26.74-5.89,36.94,0Z" fill="#b6e1f9" opacity=".57"></path><path d="m148.18,194.77c11.25,6.5,11.25,17.03,0,23.53-11.25,6.5-29.5,6.5-40.75,0-11.25-6.5-11.25-17.03,0-23.53,11.25-6.5,29.5-6.5,40.75,0Z" fill="#b6e1f9" opacity=".57"></path><polygon points="87.39 126.9 95.75 131.71 120.43 117.49 112.07 112.68 87.39 126.9" fill="#b57022"></polygon><path d="m93.85,157.52c0,1.07.75,1.49,1.67.96l23.23-13.41c.93-.54,1.69-1.85,1.69-2.92v-24.66l-26.58,15.35v24.68Z" fill="#b57022"></path><path d="m87.39,152.69c0,1.07.75,2.36,1.67,2.89l5.01,2.89c.93.54,1.69.1,1.69-.97v-25.79l-8.36-4.83v25.81Z" fill="#905115"></path><path d="m94.82,158.18c.35,0,.41-.42.41-.68v-25.49l-7.31-4.22v24.9c0,.88.64,2,1.4,2.44l5.01,2.89c.23.13.39.16.49.16Z" fill="#905115"></path><polygon points="114.56 135.48 114.85 135.67 116.82 134.18 117.11 131.75 116.82 131.57 114.56 132.88 114.56 135.48" fill="#6c7f84"></polygon><polygon points="114.85 133.06 116.82 134.18 117.11 131.75 116.82 131.57 114.56 132.88 114.85 133.06" fill="#90a1a5"></polygon><polygon points="114.85 133.06 114.85 135.67 117.11 134.36 117.11 131.75 114.85 133.06" fill="#7f9196"></polygon><polygon points="116.85 134.21 116.85 132.2 115.11 133.21 115.11 135.22 116.85 134.21" fill="#667b80"></polygon><polygon points="114.85 134.34 114.85 134.5 117.11 133.17 117.11 133.03 114.85 134.34" fill="#516367"></polygon><rect x="105.67" y="119.31" width="2.76" height=".36" fill="#758689"></rect><path d="m106.07,119.11c-.54.31-.54.82,0,1.13.54.31,1.41.31,1.95,0,.54-.31.54-.81,0-1.13-.54-.31-1.41-.31-1.95,0Z" fill="#758689"></path><path d="m106.07,118.74c-.54.31-.54.82,0,1.13.54.31,1.41.31,1.95,0,.54-.31.54-.82,0-1.13-.54-.31-1.41-.31-1.95,0Z" fill="#90a1a5"></path><path d="m106.46,118.97c-.33.19-.33.49,0,.69.33.19.86.19,1.18,0,.33-.19.33-.5,0-.68-.33-.19-.86-.19-1.18,0Z" fill="#9eaaaf"></path><rect x="99.39" y="122.92" width="2.76" height=".36" fill="#758689"></rect><path d="m99.79,122.72c-.54.31-.54.82,0,1.13.54.31,1.41.31,1.95,0,.54-.31.54-.81,0-1.13-.54-.31-1.41-.31-1.95,0Z" fill="#758689"></path><path d="m99.79,122.35c-.54.31-.54.82,0,1.13.54.31,1.41.31,1.95,0,.54-.31.54-.82,0-1.13-.54-.31-1.41-.31-1.95,0Z" fill="#90a1a5"></path><path d="m100.17,122.57c-.33.19-.33.5,0,.69.33.19.86.19,1.18,0,.33-.19.33-.5,0-.68-.33-.19-.86-.19-1.18,0Z" fill="#9eaaaf"></path><polygon points="100.45 119.79 101.45 120.37 101.45 123.15 101.09 123.36 100.45 122.57 100.09 120 100.45 119.79" fill="#9eaaaf"></polygon><polygon points="100.09 120 101.09 120.58 101.09 123.36 100.09 122.78 100.09 120" fill="#bec4c7"></polygon><polygon points="106.73 116.17 107.73 116.75 107.73 119.53 107.37 119.73 106.73 118.95 106.37 116.38 106.73 116.17" fill="#9eaaaf"></polygon><polygon points="106.37 116.38 107.37 116.95 107.37 119.73 106.37 119.15 106.37 116.38" fill="#bec4c7"></polygon><path d="m108.61,116.26c.23.27.31.6.04.94-.43.53-1.74.46-2.34.57-1.07.2-2.24.79-3.06,1.51-.88.77-1.37,1.28-1.96,1.92-.41.44-1.3.72-1.78.17-.47-.53.06-1.23.39-1.73.63-.95,2.18-2.21,3.52-2.9.76-.39,1.61-.68,2.44-.87.59-.13,1.26-.27,1.87-.13.29.06.66.26.89.52Z" fill="#172024"></path><path d="m100.55,110.58c-.5,2.63-1.24,8.67,1.69,10.29,1.86,1.03,6.35-.08,7.14-1.87.45-1.02.96-4.46.43-5.48-.55-1.06-.68-4.34-1.72-4.7-1.08-.38-7.54,1.76-7.54,1.76Z" fill="#f39464"></path><path d="m99.32,113.79c7.2,5.04,11.36,1.12,12.75.26-.99-3.76-.6-16.01-4.84-27.5,1.42-4.9,4.91-15.45,6.22-20.66,1.6-5.67,2.01-9.63-.81-12.29-8.27-7.76-13.78,1.37-15.98,8.7-1.24,4.12-1.47,15.64-1.86,19.91-.49,5.43,2.44,21.86,4.52,31.57Z" fill="#1a3a67"></path><path d="m191.71,85.13c3.26.69,7.69-4.95,9.29-6.9,3.56-4.32,6.99-8.68,9.99-13.4,5.56-8.74,10.14-17.99,14.04-27.58-.53-4.05-2.9-7.25-7.72-6.91-4.73.61-13.38,25.76-13.38,25.76-6.29,9.04-14.67,16.53-16.31,18.95-1.57,3.63,1.68,8.33,4.09,10.08Z" fill="#124c8f"></path><path d="m201,78.23c3.56-4.32,6.99-8.68,9.99-13.4,5.56-8.74,10.14-17.99,14.04-27.58-.39-2.98-1.79-5.51-4.43-6.49-4.46,2.92-7.37,7.42-12.32,26.37,1.32,1.98,2.5,1.53,2.5,3.51-1.98-.66-4.62,0-4.62.66-3.53,8.39-6.47,18.6-14.11,23.88.18.15.17.12.49.12,3.32.06,6.86-5.12,8.47-7.06Z" fill="#1a3a67"></path><path d="m188.13,76.55c-.67.55.45,6.46,5.03,6.69.03-.04.07-.09.08-.15.9-4.45-5.11-6.54-5.11-6.54Z" fill="#e3f0f9"></path><path d="m189.35,75.56c-.38.36-.85.81-1.25.73l-6.95,6.62c-.49,1.22-1.58,3.31-.45,4.49.79.83,2.42.83,3.46.63,2.52-.5,4.23-3.48,5.73-5.9.2-.33,1.06-1.39,1.82-2.26-.36-1.64-1-3.09-2.36-4.3Z" fill="#f39464"></path><path d="m187.78,80.86c-1.46-.03-4.15,1.35-4.52-.23.64-.93,2.48-2.43,1.28-3.4-.8-.65-2.66,1.67-3.1,2.09-1.2,1.15-2.02,1.68-2.49,3.35-.06.23-4.73-.16-4.73-.16,0,0-1.3,7.19-1.13,7.31.09.07,4.46-.4,6.22-.72.23.12.88.36,1.2.45,3,.76,3.45.25,6.56-2.02,1.03-.75,2.81-6.63.71-6.67Z" fill="#f7b18a"></path><path d="m188.55,75.67c-2.63,0-5.98,2.12-6.04,3.57-.06,1.44-.26,2.07-1.02,3-.84,1.03.5,1.14,1.24.83.74-.31,1.19-.96,1.77-2.85.82-.84,3.18,1.12,4.83.21,1.65-.92,2.16-4.74-.78-4.74Z" fill="#f39464"></path><path d="m97.5,196.05c-.28,3.86.96,7.12,6.76,5.7,1.57-.39,6.92-1.76,9.62-2,8.09-.71,12.45-3.12,10-7.63-1.71-3.15-6.31-2.15-8.89-1.69-3.48.62-5.32,1.5-8.82.47l-8.66,5.16Z" fill="#1a2c4b"></path><path d="m98.51,191.57c-3.53,5.34-.28,10.6,5.52,9.18,1.57-.38,6.92-1.76,9.62-2,8.09-.71,12.44-3.12,9.99-7.63-1.71-3.15-5.33-2.56-9.13-2.27-6.23.47-5.78-.11-8.49.29l-7.51,2.44Z" fill="#1a2c4b"></path><path d="m123.74,91.36c-1.17,10.04.41-2.53,1.19,15.22.78,17.76-.92,32.55-5.09,38.93-2.72,4.17-2.47,6.83-4.64,10.71-4.01,7.14-3.29,35.12-3.39,35.59-.02,3.58-13.92,6.95-14.29.18-.72-13.35-2.7-29.33,2.45-38.95,1.95-3.64,3.16-17.17,4.66-27.19,2.43-16.29,5.32-27.2,5.46-27.19l13.66-7.31Z" fill="#1a3a67"></path><path d="m124.56,202.79c-3.3,5.64-2.85,12.48,2.49,13.14,5.66.7,9.77,2.74,12.85,3.46,3.18.75,11.59.39,12.6-4.3.11-2.98-5.6-4.36-8.42-5.46-3.82-1.49-7.06-3.94-10.85-5.51l-8.68-1.32Z" fill="#1a2c4b"></path><path d="m123.58,203.54c-3.3,5.64-.26,10.55,5.08,11.21,5.66.7,8.15,2.58,11.24,3.31,3.18.75,11.59,1.71,12.6-2.97.11-2.98-5.6-5.69-8.42-6.79-3.82-1.49-7.06-3.94-10.85-5.51l-9.66.76Z" fill="#1a2c4b"></path><path d="m142.03,119.09s-1.09,15.76-4.19,31.14c-1.66,8.27-1.81,8.88-2.87,12.46-1.12,3.76-.46,7.52-.13,11.53,1.41,17.1,4.12,29.17,4.39,31.69-5.8,2.41-15.18,5.56-18.81-.6-2.08-11.74-1.68-19.8-3.31-33.1-1.12-9.17,3.67-11.57,2.87-20.6-.55-6.22-2.52-37.59-2.28-37.61l24.32,5.09Z" fill="#124c8f"></path><path d="m141.29,118.94l-23.57-4.93c-.09,0,.13,4.48.47,10.37,1.88,2.27,19.92,1.21,23.1-5.44Z" fill="#1a3a67"></path><path d="m110.08,98.67c-2.82,9.44-3.55,15.75,7.83,20.9,5.95,2.69,11.2,3.19,17.41,1.35,0,0,4.86-.45,4.56-8.62-.14-3.7,0-5.12,0-9.39l-29.8-4.25Z" fill="#263239"></path><path d="m142.75,116.16c-.12,5.62-5.82,7.36-12.74,6.92-10.47-.66-23.73-6.31-24.67-11.07-.68-3.49,4.05-15.82,1.22-22.77-14.43-35.45-1.19-38.33-1.19-38.33.37-.15,11.64-2.88,15.94-1.2,10.29,4.02,17.8,11.62,17.8,11.62,1.89,2.89,2.87,6.7,3.36,11.42,1.07,10.2-.2,24.68.28,43.4Z" fill="#124c8f"></path><path d="m111.8,50.26c.92-.19,3.09-7.39,3.03-8.75l12.94-1.21s-1.41,8.55-1.15,10.94c.43,3.49-5.49,1.67-8.54.84-3.64-1-6.14-.74-6.29-1.82Z" fill="#f39464"></path><path d="m132.88,33.64c-.44-4.67,1.06-5.81-2.11-5.93,1.49,4.79-3.24,11.18-5.2,16.22-1.36,3.49-5.11,4.77,1.01,6.04,3.12.04,3.46-1.54,4.7-4.36,2.38-5.39,1.98-7.82,1.6-11.97Z" fill="#f39464"></path><path d="m131.85,25.48c-2.61-1.75-5.96-2.63-9-3.34-.95-.22-1.92-.38-2.89-.36-1.63.04-3.12.65-4.45,1.58-2.68,1.88-5.48,4.87-6.01,8.21-.15.95-.11,1.9.03,2.85.14.94.28,2.13.68,3,.18.8.53,1.58,1.12,2.31.82,1,1.49,2.12,2.33,3.1.91,1.07,2.04,1.68,3.39,2.02.88.22,1.77.33,2.65.5.5.1.99.23,1.48.33.97.18,1.59-.57,2.24-1.18.76-.72,1.48-1.5,2.32-2.14.75-.57,1.26-1.16,1.67-1.78,1.07-.12,2.1-.67,2.61-1.64.93-1.77.49-3.46.68-5.19.46-.58.9-1.24,1.35-1.86.16-.21.32-.42.47-.62.66-.83.86-2.3.81-3.31-.06-1.21-.65-1.94-1.47-2.49Z" fill="#39130f"></path><path d="m127.67,39.43c0-4.1-4-1.14-3.6,1.3.67,4.14,1.15,3.91,4.78,3.55l-1.17-4.85Z" fill="#f39464"></path><path d="m113.36,46.44l-1.92,2.53s6.22.78,16.93,5.31l.74-.26c-8.35-8.92-15.75-7.58-15.75-7.58Z" fill="#e3f0f9"></path><path d="m111.43,47.82l-2.64,2.33s2.73,1.08,6.61,2.33c6.26,2.01,8.39,1.55,13.95,2.41,1.62.25,2.18.33,2.18.33l-2.99-2.76s-7.11-3.42-12.2-4.39c-5.09-.97-4.92-.24-4.92-.24Z" fill="#124c8f"></path><path d="m176.04,91.16l3.11.22s2.85-4.59-.92-10.54l-4.88.19,2.69,10.13Z" fill="#e3f0f9"></path><path d="m193.23,81.41c.08-.12-.86.57-.86.57,0,0-1.93-5.44-5.15-6-.26-.48-.11-.21-.11-.21,0,0,.19-1.89,2.63-.56,2.61,1.42,3.49,6.2,3.49,6.2Z" fill="#e3f0f9"></path><path d="m100.59,118.81c.84-.89,2.04-1.62,2.04-1.62v1.36l.1,1.18-1,1-1.37-.62.23-1.3Z" fill="#124c8f"></path><path d="m142.75,116.16c-.12,5.62-5.82,7.36-12.74,6.92,1.21-6.04,2.52-12.08,3.92-18.07,1.66-7.05.51-14.59-1.45-21.42-2.11-7.35-6.15-14.16,1.56-19.94l8.44,9.11c1.07,10.2-.2,24.68.28,43.4Z" fill="#1a3a67"></path><path d="m145.76,65.15c-4.25-4.07-7.55-6.3-11.22-5.06-10.74,3.64-5.28,12.8.16,18.2,3.05,3.03,8.65,8.13,12.23,10.48.85.56,5.46,1.55,6.71,2.08l3.81-4.95-1.23-7.21c-3.49-3.65-6.63-10.05-10.46-13.53Z" fill="#124c8f"></path><path d="m176.81,91.32s-20.64.3-23.16-.47c-2.52-.77-9.03-12.49-9.03-12.49l26.57,1.84s4.78.73,6.28,3.87c2.37,4.97-.66,7.25-.66,7.25Z" fill="#124c8f"></path><polygon points="234.96 29.73 236.84 31.81 235.69 34.31 234.96 29.73" fill="#656e71"></polygon><path d="m237.59,20.29c5.55.74,3.48,8.11-1.12,8.82-4.1.64-8.81-4.04-5.3-7.71,1.95-2.04,7.26-3.26,9.34-.96,1.27,1.42,1.22,3.31,0,4.66-2.28,2.54-6.07,1.13-8.63-.04l5.71-4.78Z" fill="#39130f"></path><path d="m221.09,7.02c-4.51,3.19-1.48,8.37.56,12.29,1.08,2.06,3.83,3.56,5.7,4.55,7.35,3.9,12.31-2.12,13.72-6.13,1.68-4.76-.28-12.73-7.23-14.03l-12.75,3.32Z" fill="#39130f"></path><path d="m220.51,183.42c4.91-.26,6.79-4.41,6.1-8.33l2.53-2.72c2.94,3.49,1.59,6.98.14,10.52-.98,2.38-1.62,4.84-2.44,7.1-.65,1.79-.81,3.11-2.6,3.81-2.42.94-6.74.97-8.52-1.04-.16-.83-.24-1.46-.22-3.24.27-.44,4.46-4.12,5.02-6.1Z" fill="#1a2c4b"></path><path d="m231.89,177.57c.41-.95.47-2.48.93-1.47-.29,5.39-.81,9.32-1.08,10.72-.3,1.7-1.51,1.54-2.27,1.5-.25-2.65-.45-5.69,0-8.4,1.35-.82,1.77-.9,2.41-2.36Z" fill="#263239"></path><path d="m226.35,174.02l3.31-3.61c3.69,3.82,5.3,7.03,1.19,10.21-3.17,2.45-3.17,5.48-4.22,8.12-1.13,2.87-6.33,4.05-9.7,2.7-1.88-.75-1.59-2.63-1.07-3.54.87-1.52,3.61-3.56,4.82-6.38,5.53-.17,6.94-3.25,5.66-7.5Z" fill="#1a2c4b"></path><path d="m223.26,173.21c1.83-11.63-3.7-25.43-3.83-35.61-.13-10-3.95-9.53-5.74-21.41l12.85,1.6c4.21,10.43,5.89,15.82,6.29,21.86.47,7.3-2.41,14.65-2.99,29.73.21,1.93.82,2.74.8,4.29-.03,2.75-1.42,6.18-3.3,9.22-1.08,1.74-2.67,4.86-5.81,3.8-2.43-.81-1.91-1.53-1.52-2.94.41-1.51,3.36-10.53,3.25-10.54Z" fill="#f39464"></path><path d="m228.03,187.57c4.91-.27,6.79-4.4,6.1-8.33l2.53-2.72c4.92,5.84-.16,10.19-1.68,16.21-.76,2.99-2.69,5.52-6.46,5.23-3.08-.24-3.7-1.33-3.9-1.97-.38-1.23-.23-1.97,0-3.22.27-.44,2.85-3.2,3.41-5.19Z" fill="#1a2c4b"></path><path d="m238.42,181.04c.41-.95.47-2.49.93-1.47-.29,5.39-.93,8.84-1.2,10.25-.3,1.7-1.22,1.5-1.97,1.46-.32-3.38-.32-4.73,0-6.69,1.35-.82,1.61-2.1,2.24-3.56Z" fill="#1a2c4b"></path><path d="m233.87,178.17l3.43-3.48c3.7,4.92,1.6,7.08.33,10.35-1.15,2.97-2.43,5.19-3.48,7.84-1.14,2.87-4.13,3.77-7.55,2.56-5.26-1.86.32-6.9,1.21-7.87,5.53-.17,7.34-5.15,6.06-9.41Z" fill="#1a2c4b"></path><path d="m230.49,177c1.79-11.37-1.23-27.34-2.1-33.36-.34-2.36-.91-8.05-1.39-9.48-1.52-4.57-3.37-5.9-3.3-13.57l10.06.98c4.21,10.42,5.75,14.1,6.15,20.14.48,7.31-2.27,16.38-2.85,31.46.22,1.93.81,3.58.79,5.13-.03,2.75-1.07,5.17-2.95,8.21-1.07,1.74-1.94,4.02-4.47,4.11-2.2.08-3.23-1.08-2.85-2.5.42-1.51.67-3.3,1.08-4.68.66-2.19,1.92-6.44,1.81-6.45Z" fill="#f7b18a"></path><path d="m213.6,53.72c1.53,6.3,3.92,11.41.84,15.69-3.08,4.29-2.36,4.44-.6,6.45,1.75,2.01,7.82-11.77,6.13-15.44-1.69-3.66-6.37-6.71-6.37-6.71Z" fill="#1a3a67"></path><path d="m217.71,67.52c.79,3.37,4.86,5.1,8.22,5.27,3.84.2,7.26-.22,9.92-2.72,3.34,3.12,6.18,7.7,7.36,11.65,1.9,6.38-1.07,19.79-2.39,31.23-.67,5.8-2.32,12.05-1.28,15.67,1.13,3.97-19.66,1.91-25.57-6.83-2.85-7.93-3.6-20.94-3.98-29.07-.23-4.84.7-7.88,1.08-12.72.44-5.66,4.02-9.36,6.63-12.48Z" fill="#1a3a67"></path><path d="m209.99,47.02c.08,2.26,1.12,4.55,2.37,6.35.62.91,1.36,1.75,2.13,2.54,1.23,3.58,1.91,3.59,2.81,7.01.43,1.57,1.4,3.52-.19,5.3-1.26,1.41-.31,3.82,2.05,5.8,3.94,3.3,18.65,6.61,19.96-.23-3.15-4.51-4.21-7.01-3.8-9.38,1.07-6.26,8.57-7.93,11.07-14.71.02-.07.05-.13.07-.19.01-.03.02-.06.04-.08.66-1.97.14-5.25-.63-6.47,0,0-5.47-8.95-13.86-11.98-4.34-1.56-7.78-1.76-10.07-1.6-1.56.11-2.57.39-2.95.51l-.17.06h-.01c-.14.11-1.28.92-1.57,2,0,.02,0,.06-.02.08-.23.76-1,2.3-1.84,3.85-.01.04-.02.05-.02.05-1.14,2.12-2.41,4.26-2.56,4.49-.85,1.3-1.87,2.5-2.39,3.97-.31.85-.42,1.74-.39,2.62Z" fill="#e3f0f9"></path><path d="m222.79,29.4c1.58-.27,2.18.03,3.15-1.25.31-.84,1.72-6.46,1.86-8.54l7.24,1.19c-1.27,10.93.75,12.08,5.13,15.63-12.82,8.32-20.45-.33-17.37-7.03Z" fill="#f39464"></path><path d="m210.29,46.99c.13,1.13.58,2.29,1.41,3.55,1.98,3.04,5.46,5.1,8.81,6.24,3.41,1.15,7.7,2.21,11.21.91,2.27-.84,5.23-2.24,4.84-5.14-.31-2.22-2.26-3.98-4.19-4.91-.83-.42-3.07-.48-3.54-1.36-.36-.69.29-.69.89-1,1-.5,2.13-1.3,2.3-2.53-6.4-1.43-9.08-4.96-13.25-9.55-.49-.53-1.02-.92-1.56-1.15-.55,1.82-4.15,7.97-4.42,8.39-.22.37-.46.72-.69,1.05-1.35,1.95-2,3.69-1.8,5.51Z" fill="#eff8fc"></path><path d="m238.27,34.96s-3.25,14.85-12.35,23.72c-9.1,8.86,2.58,24.38,2.83,25.44.26,1.06,12.07,1.5,14.76-4.6-1.95-3.61-7.34-11.4-7-13.07.34-1.66,7.81-9.18,7.81-9.18l1.88-14.65s-3.92-4.99-7.92-7.66Z" fill="#1a3a67"></path><path d="m236.84,31.81c2.18,1.8,4.33,5.16,4.33,5.16,0,0-.25,7.63-4.22,13.88-2.21,0-4.33.35-4.33.35,0,0,2.46.81,4.69.69,0,0-1.55,3.72-12.39,10.06-.98.67-2.68,5.06-2.06,8.93-.68-2.53-1.92-7.95,4.85-14.51,6.76-6.55,8.42-23.79,8.42-23.79l.72-.78Z" fill="#124c8f"></path><path d="m219.03,33.97c-3.72,4.97-6.31,10.24-5.47,16.64.5,3.8,1.84,7.3,3.31,10.8-.46,3.49-.3,5.41-3.66,9.82.89-3.7,3.09-8.49-.5-15.02-1.4-2.55-2.36-5.6-2.81-8.5v-.07c-.18-1.06-.05-2.13.25-3.16.62-2.07,2.01-3.82,3.05-5.69.92-1.66,1.83-3.32,2.72-5,.29-.55.59-1.1.86-1.66.51-1.03,1.62-2.24,1.62-2.24,0,0,2.53-.67,2.61-.72l-.36,3.15c-.57.43-1.11.96-1.61,1.64Z" fill="#1a3a67"></path><path d="m223.9,28.98c-3.31,3.43-10.32,12.51-9.45,18.81.65,4.69,2.43,10.19,2.72,14.63-.51-1.08-.71-2.13-1.43-3.43-1.88-3.38-5.75-10.85-3.53-18.42.71.93,1.67,1.75,1.67,1.75l-.98-3.56,7.6-9.58,3.81-2.55-.41,2.35Z" fill="#124c8f"></path><polygon points="229.64 111.3 237.98 116.1 262.61 101.91 254.27 97.1 229.64 111.3" fill="#b57022"></polygon><path d="m236.09,141.85c0,1.06.74,1.49,1.66.96l23.18-13.38c.93-.54,1.68-1.84,1.68-2.91v-24.61l-26.52,15.32v24.63Z" fill="#b57022"></path><path d="m229.64,137.04c0,1.06.75,2.36,1.66,2.89l5,2.89c.93.54,1.68.1,1.68-.97v-25.74l-8.35-4.82v25.76Z" fill="#905115"></path><path d="m237.05,142.51c.35,0,.4-.42.4-.67v-25.44l-7.29-4.21v24.85c0,.88.64,1.99,1.4,2.43l5,2.89c.23.13.39.16.49.16Z" fill="#905115"></path><path d="m237.98,127.96c0,1.06.75,1.49,1.67.96l21.28-12.07c.93-.54,1.68-1.84,1.68-2.91v-11.49l-24.63,14.19v11.32Z" fill="#905115"></path><path d="m237.98,127.42c0,1.06.75,1.49,1.67.96l21.28-12.07c.93-.54,1.68-1.84,1.68-2.91v-11.49l-24.63,14.19v11.32Z" fill="#905115"></path><path d="m237.98,115.79l24.63-13.89-24.31,14.23-.06,10.97c0,1.05.74,1.49,1.65.94l21.28-12.07c.29-.16.58-.42.81-.71-.29.45-.66.81-1.05,1.05l-21.28,12.07c-.92.52-1.68.1-1.68-.97v-11.31l-8.34-4.83,8.35,4.51Z" fill="#905115"></path><polygon points="256.76 119.87 257.05 120.05 259.01 118.56 259.3 116.14 259.01 115.96 256.76 117.26 256.76 119.87" fill="#6c7f84"></polygon><polygon points="257.04 117.44 259.01 118.56 259.3 116.14 259.01 115.96 256.76 117.26 257.04 117.44" fill="#90a1a5"></polygon><polygon points="257.04 117.44 257.04 120.05 259.3 118.75 259.3 116.14 257.04 117.44" fill="#7f9196"></polygon><polygon points="259.04 118.6 259.04 116.59 257.3 117.59 257.3 119.6 259.04 118.6" fill="#667b80"></polygon><polygon points="257.04 118.72 257.04 118.88 259.3 117.56 259.3 117.42 257.04 118.72" fill="#516367"></polygon><polygon points="243.45 127.45 243.74 127.64 245.71 126.15 245.99 123.73 245.71 123.55 243.45 124.85 243.45 127.45" fill="#6c7f84"></polygon><polygon points="243.73 125.03 245.71 126.15 245.99 123.73 245.71 123.55 243.45 124.85 243.73 125.03" fill="#90a1a5"></polygon><polygon points="243.73 125.03 243.73 127.64 245.99 126.34 245.99 123.73 243.73 125.03" fill="#7f9196"></polygon><polygon points="245.74 126.19 245.74 124.18 243.99 125.18 243.99 127.19 245.74 126.19" fill="#667b80"></polygon><polygon points="243.73 126.31 243.73 126.47 245.99 125.15 245.99 125.01 243.73 126.31" fill="#516367"></polygon><rect x="247.88" y="103.73" width="2.76" height=".36" fill="#758689"></rect><path d="m248.29,103.52c-.54.31-.54.81,0,1.13.54.31,1.41.31,1.95,0,.54-.31.54-.81,0-1.12-.54-.31-1.41-.31-1.95,0Z" fill="#758689"></path><path d="m248.29,103.16c-.54.31-.54.81,0,1.13.54.31,1.41.31,1.95,0,.54-.31.54-.82,0-1.13-.54-.31-1.41-.31-1.95,0Z" fill="#90a1a5"></path><path d="m248.67,103.38c-.33.19-.33.5,0,.68.33.19.86.19,1.18,0,.33-.19.33-.49,0-.68-.32-.19-.85-.19-1.18,0Z" fill="#9eaaaf"></path><rect x="241.61" y="107.33" width="2.76" height=".36" fill="#758689"></rect><path d="m242.02,107.12c-.54.31-.54.81,0,1.13.54.31,1.41.31,1.95,0,.54-.31.54-.81,0-1.12-.54-.31-1.41-.31-1.95,0Z" fill="#758689"></path><path d="m242.02,106.76c-.54.31-.54.81,0,1.12.54.31,1.41.31,1.95,0,.54-.31.54-.82,0-1.12-.54-.31-1.41-.31-1.95,0Z" fill="#90a1a5"></path><path d="m242.4,106.98c-.33.19-.33.5,0,.68.33.19.86.19,1.18,0,.33-.19.33-.49,0-.68-.33-.19-.86-.19-1.18,0Z" fill="#9eaaaf"></path><polygon points="242.67 104.21 243.67 104.79 243.67 107.56 243.31 107.76 242.67 106.98 242.31 104.41 242.67 104.21" fill="#9eaaaf"></polygon><polygon points="242.31 104.41 243.31 104.99 243.31 107.76 242.31 107.18 242.31 104.41" fill="#bec4c7"></polygon><polygon points="248.94 100.59 249.94 101.17 249.94 103.94 249.58 104.15 248.94 103.36 248.58 100.8 248.94 100.59" fill="#9eaaaf"></polygon><polygon points="248.58 100.8 249.58 101.38 249.58 104.15 248.58 103.57 248.58 100.8" fill="#bec4c7"></polygon><path d="m250.81,100.68c.23.27.31.6.04.94-.43.53-1.74.46-2.34.57-1.06.2-2.23.79-3.05,1.5-.88.77-1.37,1.27-1.96,1.91-.41.45-1.3.71-1.78.17-.47-.53.06-1.22.39-1.72.63-.95,2.18-2.21,3.51-2.9.75-.39,1.61-.68,2.44-.87.59-.13,1.25-.27,1.86-.13.29.06.66.26.88.52Z" fill="#124c8f"></path><path d="m244.18,40.8c1.68.78,3.21,4.93,3.61,5.98.8,2.1,1.18,4.26,1.48,6.48.89,6.47,3.4,15.12,2.28,21.62-.65,3.82-6.99,7.42-6.6,2.95.91-10.31-4.57-16.62-4.9-22.82-.15-2.82-.37-5.73.25-8.51.33-1.47,1.43-4.66,2.6-5.56.42-.33.86-.34,1.28-.15Z" fill="#f7b18a"></path><path d="m247.86,96.03c-1.6-.1-2.44-.15-4.05-.25.05-4.83-.12-11.5-.21-15.66-.11-4.84-.49-6.74.25-11.07.32-5.48,3.77-5.59,6.16-6.3.71,2.06,2.24,8.47,2.23,10.92-.02,4.3-.71,7.1-1.22,9.33-.52,2.28-1.62,7.97-3.17,13.02Z" fill="#f7b18a"></path><path d="m249.91,102.67c-.26.94-.86,1.44-1.75,1.81-.39.16-.78.3-1.18.43-.17.06-.89.19-.94.31-.2.47-1.1.65-1.52.44-.55-.28-.33-.94-.35-1.43-.03-.57-.39-1.17-.25-1.75-.22.88-.86,1.77-1.17,1.99-.21.14-1,.52-1.2.4-.71-.4.49-1.64.72-2.94.17-.94-.32-2.34.48-4.21.25-.58.58-1.07.86-1.61.56-1.7.56-3.11,1.53-3.54,0,0,1.66-.31,3.15,2.07.12.19,0,.87.03,1.12.03.37.09.73.17,1.09.16.72.4,1.41.68,2.1.41,1.01.73,1.98.82,3.1.02.22,0,.42-.05.61Z" fill="#f7b18a"></path><path d="m235.37,22.14c-.19.79.18,2.88-3.46,5.63-2.25,1.71-4.85,3.46-7.4,3.15-1.98-.24-3.34-4.08-4.04-6.78-1.03-3.94-.61-6.77,0-10.8.86-5.67,2.26-9.3,9.92-7.29,7.66,2.01,6.51,9.41,4.98,16.09Z" fill="#f7b18a"></path><path d="m231.95,17.13c-.12-.15-2.65.03-2.78-.12-.58-.71-1.11-1.45-1.61-2.08.14.29.27.61.39.95-.98-.72-2.15-1.22-3.51-1.43-.32-.34-.64-.68-.96-.99.15.29.26.6.34.92-.22-.02-.44-.03-.67-.03-.76,0-1.44.1-2.07.26-1.21-.81-2.34-1.98-2.35-3.6-.04-3.99,6.42-6.78,9.43-7.49,6.53-1.55,11.76,3.5,11.71,10.51-.01,2.63-1.17,5.15-4.82,5.72-2.4.37-1.65-.94-3.1-2.62Z" fill="#39130f"></path><path d="m238.53,20.48c-.42,1.51-2.43,4.33-4.28,3.07l1.28-4.53c.71-1.8,3.99-2.04,3.01,1.46Z" fill="#f7b18a"></path><path d="m249.8,92.31l-.36,3.6s-3.47,1.37-6.63-.52c-.09-1.37,0-3.73,0-3.73l6.99.65Z" fill="#e3f0f9"></path><path d="m245.05,39.85c-1.68.37-5.33.81-6.06,10.22-.23,2.93,3.7,19.53,3.7,19.53l-.78,22.53s8.22,3.54,9.12.44c2.71-9.41,1.92-28.56,1.92-28.56l-4.12-15.97-1.3-5.58-2.49-2.62Z" fill="#1a3a67"></path></svg> 